<svg width="67" height="67" xmlns="http://www.w3.org/2000/svg">

 <g>
  <title>background</title>
  <rect fill="none" id="canvas_background" height="402" width="582" y="-1" x="-1"/>
 </g>
 <g>
  <title>Layer 1</title>
  <path stroke="null" id="svg_1" fill-rule="evenodd" clip-rule="evenodd" fill="#333333" d="m52.165638,49.078856l0,-13.004809c0,-6.967655 -3.71572,-10.209974 -8.669274,-10.209974c-3.997449,0 -5.788759,2.20189 -6.787013,3.746433l0,-3.213449l-7.531266,0c0.099825,2.128605 0,22.681799 0,22.681799l7.531266,0l0,-12.667252c0,-0.676223 0.048803,-1.353557 0.248454,-1.837684c0.543493,-1.354668 1.782437,-2.757082 3.862131,-2.757082c2.72634,0 3.815546,2.079748 3.815546,5.12775l0,12.135379l7.530157,0l0,-0.00111zm-30.921448,-25.777547c2.625406,0 4.261432,-1.743302 4.261432,-3.920763c-0.048803,-2.224098 -1.636026,-3.917432 -4.211519,-3.917432s-4.260323,1.692224 -4.260323,3.917432c0,2.177462 1.634917,3.920763 4.162716,3.920763l0.047694,0zm12.246348,43.391557c-18.376732,0 -33.275107,-14.914668 -33.275107,-33.311498c0,-18.39794 14.898374,-33.311498 33.275107,-33.311498s33.275107,14.913558 33.275107,33.311498c0,18.39683 -14.898374,33.311498 -33.275107,33.311498zm-8.480716,-17.61401l0,-22.681799l-7.530157,0l0,22.681799l7.530157,0z"/>
 </g>
</svg>